<?xml version="1.0" encoding="UTF-8" standalone="no"?>
<!-- Created with Inkscape (http://www.inkscape.org/) -->

<svg
   xmlns:dc="http://purl.org/dc/elements/1.1/"
   xmlns:cc="http://creativecommons.org/ns#"
   xmlns:rdf="http://www.w3.org/1999/02/22-rdf-syntax-ns#"
   xmlns:svg="http://www.w3.org/2000/svg"
   xmlns="http://www.w3.org/2000/svg"
   xmlns:sodipodi="http://sodipodi.sourceforge.net/DTD/sodipodi-0.dtd"
   xmlns:inkscape="http://www.inkscape.org/namespaces/inkscape"
   width="600"
   height="600"
   id="svg2"
   version="1.1"
   inkscape:version="0.48.4 r9939"
   sodipodi:docname="Documento nuevo 1">
  <defs
     id="defs4" />
  <sodipodi:namedview
     id="base"
     pagecolor="#ffffff"
     bordercolor="#666666"
     borderopacity="1.0"
     inkscape:pageopacity="0.0"
     inkscape:pageshadow="2"
     inkscape:zoom="0.74921875"
     inkscape:cx="417.74677"
     inkscape:cy="261.34013"
     inkscape:document-units="px"
     inkscape:current-layer="layer1"
     showgrid="false"
     inkscape:window-width="1366"
     inkscape:window-height="715"
     inkscape:window-x="1352"
     inkscape:window-y="22"
     inkscape:window-maximized="1" />
  <metadata
     id="metadata7">
    <rdf:RDF>
      <cc:Work
         rdf:about="">
        <dc:format>image/svg+xml</dc:format>
        <dc:type
           rdf:resource="http://purl.org/dc/dcmitype/StillImage" />
        <dc:title></dc:title>
      </cc:Work>
    </rdf:RDF>
  </metadata>
  <g
     inkscape:label="Capa 1"
     inkscape:groupmode="layer"
     id="layer1"
     transform="translate(0,-452.36218)">
    <g
       id="g3082">
      <path
         sodipodi:nodetypes="cccccccsccccccccccccccsccccccc"
         d="m 6.7794202,847.02933 0,-258.77694 c 0,-7.44079 5.2180308,-11.42074 12.2143968,-11.42074 l 95.011133,0 c 21.55492,2.4e-4 37.94117,2.17224 49.15878,6.51601 11.21725,4.34424 20.18019,12.01498 26.88886,23.01225 6.70826,10.99769 10.06249,23.1499 10.06271,36.45668 -2.2e-4,17.15624 -5.55395,31.61793 -16.6612,43.3851 -11.10766,11.76743 -28.26373,19.24572 -51.46825,22.43488 8.4679,4.06917 14.90143,8.08325 19.30059,12.04225 9.34769,8.57813 18.20066,19.30067 26.55894,32.16766 l 42.0654,65.81997 c 0,0 -39.47381,3.10707 -51.26649,-17.31846 l -20.98702,-32.99505 c -9.34803,-14.51662 -17.04626,-25.62408 -23.09473,-33.3224 -6.04876,-7.69815 -11.46502,-13.08691 -16.24879,-16.16631 -4.78403,-3.07919 -9.650418,-5.2237 -14.59917,-6.43353 -3.629282,-0.76972 -9.567921,-1.15463 -17.815934,-1.15474 l -37.116529,0 0,93.59559 c 0,19.01462 -32.0026968,21.31378 -32.0026968,42.15778 z m 32.0026968,-163.46704 68.789303,0 c 14.62652,1.3e-4 26.0639,-1.51202 34.31217,-4.53647 8.24794,-3.02416 14.51651,-7.86305 18.8057,-14.51668 4.28884,-6.65332 6.43335,-13.88417 6.43354,-21.69255 -1.9e-4,-11.4372 -4.15174,-20.84005 -12.45466,-28.20856 -8.30327,-7.36811 -21.41777,-11.05227 -39.34352,-11.05248 l -76.542533,0 z"
         style="font-size:337.84289551px;font-style:normal;font-variant:normal;font-weight:normal;font-stretch:normal;line-height:125%;letter-spacing:0px;word-spacing:0px;fill:#000000;fill-opacity:1;stroke:none;font-family:Helvetica;-inkscape-font-specification:Helvetica"
         id="path3024"
         inkscape:connector-curvature="0" />
      <path
         sodipodi:nodetypes="csssssccccccccsccccccccsccccccscssscsc"
         d="m 360.9536,797.05639 c -10.99762,9.34788 -21.58269,15.94636 -31.75526,19.79548 -10.17277,3.84912 -21.08777,5.77368 -32.74502,5.77368 -19.24566,0 -34.03727,-4.70143 -44.37488,-14.10428 -10.33765,-9.40283 -15.50647,-21.41758 -15.50646,-36.04427 -1e-5,-8.57799 1.95204,-16.41369 5.85617,-23.50714 3.90408,-7.0933 9.01791,-12.7845 15.3415,-17.0736 6.32351,-4.28893 13.44438,-7.53319 21.36262,-9.73278 5.82861,-1.53955 14.62659,-3.02421 26.39398,-4.45398 23.97442,-2.85925 41.62537,-6.26847 52.95291,-10.22767 0.10984,-4.06896 0.16483,-6.65336 0.16496,-7.75323 -1.3e-4,-12.09711 -2.80449,-20.62015 -8.41308,-25.56916 -7.58838,-6.70832 -18.8608,-10.06255 -33.81728,-10.06271 -13.96689,1.6e-4 -24.27703,2.4471 -30.93044,7.34083 -4.49572,3.30683 -7.4404,8.7153 -11.11466,15.07932 -6.79777,11.77408 -32.68284,6.94315 -32.68284,6.94315 2.63937,-12.42703 6.98338,-22.46223 13.03202,-30.10563 6.04858,-7.64309 14.79158,-13.52674 26.22902,-17.65097 11.43732,-4.12388 24.68928,-6.18591 39.75592,-6.18609 14.95648,1.8e-4 27.10869,1.75978 36.45668,5.2788 9.34773,3.51936 16.22115,7.94585 20.6203,13.27947 4.39883,5.33393 7.47813,12.06989 9.23789,20.20788 0.98961,5.05898 1.48449,14.18689 1.48466,27.38375 l 0,39.59097 c -1.7e-4,27.60374 0.63219,45.06224 1.89707,52.37555 1.26454,7.31334 -23.50714,21.03269 -23.50714,21.03269 -3.07944,-6.15858 -5.05898,-13.36193 -5.93864,-21.61006 z m -2.47444,-66.31487 c -10.77766,4.39908 -26.94396,8.13822 -48.49893,11.21744 -12.20729,1.75967 -20.84031,3.73922 -25.89909,5.93865 -5.0589,2.19956 -8.96301,5.41633 -11.71233,9.65029 -2.74941,4.23409 -4.1241,8.93552 -4.12406,14.10428 -4e-5,7.91824 2.99677,14.51672 8.99045,19.79549 5.99358,5.27881 14.76407,7.91821 26.3115,7.91819 11.4373,2e-5 21.60996,-2.50191 30.51803,-7.50579 8.90785,-5.00382 15.45135,-11.84975 19.63052,-20.53781 3.18914,-6.70841 4.78378,-16.60615 4.78391,-29.69322 z"
         style="font-size:337.84289551px;font-style:normal;font-variant:normal;font-weight:normal;font-stretch:normal;line-height:125%;letter-spacing:0px;word-spacing:0px;fill:#000000;fill-opacity:1;stroke:none;font-family:Helvetica;-inkscape-font-specification:Helvetica"
         id="path3026"
         inkscape:connector-curvature="0" />
      <path
         d="m 279.28338,902.51382 c -3.147,0 -5.66458,-1.0326 -7.55276,-3.09781 -1.8882,-2.0652 -2.83229,-4.49427 -2.83228,-7.28722 -1e-5,-2.83227 0.92442,-5.27118 2.77328,-7.31674 1.84883,-2.04551 4.38609,-3.06828 7.61176,-3.0683 3.38298,2e-5 5.95957,1.01295 7.72977,3.0388 1.77015,2.02589 2.65523,4.47463 2.65526,7.34624 -3e-5,2.79295 -0.90478,5.22202 -2.71427,7.28722 -1.80954,2.06521 -4.36646,3.09781 -7.67076,3.09781 z"
         style="font-size:241.68814087px;font-style:normal;font-variant:normal;font-weight:normal;font-stretch:normal;line-height:125%;letter-spacing:0px;word-spacing:0px;fill:#000000;fill-opacity:1;stroke:none;font-family:JasmineUPC;-inkscape-font-specification:JasmineUPC"
         id="path3015"
         inkscape:connector-curvature="0" />
      <path
         d="m 322.35768,913.60693 c -3e-5,4.83847 0.41302,8.06412 1.23912,9.67697 0.47202,0.82606 1.67181,1.5538 3.59936,2.18322 1.77015,0.86539 2.65524,1.90783 2.65527,3.12731 -3e-5,2.28153 -1.19982,3.42231 -3.59936,3.42234 l -18.17382,0 c -1.5735,-3e-5 -2.64544,-0.18688 -3.21582,-0.56056 -0.5704,-0.37373 -0.85559,-1.32766 -0.85558,-2.86178 -10e-6,-0.98346 0.8064,-2.02589 2.41924,-3.12731 3.22564,-3e-5 4.83847,-3.4617 4.83848,-10.38504 l 0,-60.89408 c -10e-6,-3.61898 -0.36388,-6.5201 -1.09161,-8.70337 -0.72775,-2.18316 -2.46842,-3.47146 -5.22202,-3.86489 -2.91096,-0.47199 -4.36644,-1.2784 -4.36643,-2.41924 -1e-5,-1.77011 1.71116,-3.66813 5.13351,-5.69407 3.42233,-2.0258 6.07759,-3.03873 7.96579,-3.0388 2.71426,7e-5 4.5631,1.07201 5.54656,3.21582 0.98341,2.14395 2.02584,5.43844 3.12731,9.88349 7.39537,-8.73281 15.69553,-13.09924 24.90049,-13.09931 9.16552,7e-5 16.89528,3.56009 23.18931,10.68006 5.82184,6.64806 8.73279,15.10556 8.73288,25.37254 -9e-5,11.09313 -2.91104,19.86533 -8.73288,26.31663 -3.18639,3.77638 -7.12994,6.69717 -11.83068,8.76237 -4.70086,2.06521 -9.5295,3.09781 -14.48595,3.09781 -2.98967,0 -6.59886,-0.67857 -10.82758,-2.0357 -4.22878,-1.35714 -6.34316,-3.25516 -6.34313,-5.69407 -3e-5,-0.82608 0.23599,-1.60299 0.70807,-2.33073 0.47202,-0.72773 1.12108,-1.0916 1.94719,-1.09161 1.06208,10e-6 2.10451,0.33437 3.12732,1.0031 3.54031,1.77018 7.65105,2.65527 12.33223,2.65526 3.02892,10e-6 6.05788,-0.82607 9.08691,-2.47824 3.02891,-1.65216 5.48748,-3.73703 7.37573,-6.25463 3.69764,-5.58587 5.54649,-12.50922 5.54656,-20.77007 -7e-5,-8.02476 -1.75058,-14.78093 -5.25153,-20.26853 -3.50107,-5.48749 -9.08696,-8.23126 -16.75767,-8.23132 -6.37268,6e-5 -11.6832,2.00626 -15.93159,6.0186 -4.52382,4.13047 -6.78571,9.85403 -6.78568,17.17072 z"
         style="font-size:241.68814087px;font-style:normal;font-variant:normal;font-weight:normal;font-stretch:normal;line-height:125%;letter-spacing:0px;word-spacing:0px;fill:#000000;fill-opacity:1;stroke:none;font-family:JasmineUPC;-inkscape-font-specification:JasmineUPC"
         id="path3017"
         inkscape:connector-curvature="0" />
      <path
         d="m 456.59609,913.66594 c -8e-5,4.8385 0.31462,7.96581 0.94409,9.38194 0.51131,0.98344 1.73077,1.78985 3.65837,2.41924 1.92744,0.6294 2.89121,1.69151 2.89129,3.18632 -8e-5,2.24222 -1.29821,3.36333 -3.89439,3.36333 l -16.16762,0 c -2.12427,0 -3.57975,-0.20652 -4.36643,-0.61956 -0.78681,-0.41304 -1.18018,-1.32763 -1.18012,-2.74377 -6e-5,-1.29813 0.80636,-2.36023 2.41924,-3.18632 l 1.41614,-0.70807 1.71117,-1.18012 c 0.78669,-1.45547 1.18006,-4.7598 1.18012,-9.91299 l 0,-29.50295 c -6e-5,-4.75975 -1.47521,-8.56563 -4.42544,-11.41764 -2.95035,-2.85189 -7.10043,-4.27786 -12.45025,-4.27792 -7.71014,6e-5 -14.96785,3.12737 -21.77317,9.38193 l 0,35.81658 c -2e-5,4.8385 0.41302,7.96581 1.23912,9.38194 0.47203,0.98344 1.67181,1.78985 3.59936,2.41924 2.08485,0.6294 3.12728,1.69151 3.12731,3.18632 -3e-5,2.24222 -1.27849,3.36333 -3.83538,3.36333 l -17.64276,0 c -2.16356,0 -3.6387,-0.20652 -4.42544,-0.61956 -0.78675,-0.41304 -1.18012,-1.32763 -1.18012,-2.74377 0,-1.18012 0.88508,-2.24222 2.65526,-3.18632 2.20288,-0.70806 3.57969,-1.33746 4.13042,-1.88819 0.82607,-1.45547 1.23911,-4.7598 1.23912,-9.91299 l 0,-78.83187 c -10e-6,-2.00611 -0.40322,-3.33374 -1.20962,-3.9829 -0.80642,-0.64896 -2.27174,-1.40621 -4.39594,-2.27173 -1.61283,-0.39327 -2.41924,-1.12101 -2.41924,-2.18322 0,-1.062 1.0621,-2.10443 3.18632,-3.12731 1.53414,-0.86531 3.71736,-1.84874 6.54965,-2.95029 2.83227,-1.10133 4.91714,-1.65206 6.25463,-1.65217 2.08485,1.1e-4 3.12729,2.00631 3.12731,6.0186 l 0,45.19852 c 7.15935,-6.60859 15.30216,-9.91292 24.42844,-9.91299 7.82806,7e-5 14.2597,2.75367 19.29493,8.26082 2.51751,2.675 4.19918,5.66463 5.045,8.9689 0.84568,3.30438 1.26855,7.2381 1.26863,11.80118 z"
         style="font-size:241.68814087px;font-style:normal;font-variant:normal;font-weight:normal;font-stretch:normal;line-height:125%;letter-spacing:0px;word-spacing:0px;fill:#000000;fill-opacity:1;stroke:none;font-family:JasmineUPC;-inkscape-font-specification:JasmineUPC"
         id="path3019"
         inkscape:connector-curvature="0" />
      <path
         d="m 493.23875,913.60693 c -3e-5,4.83847 0.41301,8.06412 1.23912,9.67697 0.47202,0.82606 1.6718,1.5538 3.59936,2.18322 1.77014,0.86539 2.65523,1.90783 2.65526,3.12731 -3e-5,2.28153 -1.19981,3.42231 -3.59936,3.42234 l -18.17381,0 c -1.5735,-3e-5 -2.64544,-0.18688 -3.21582,-0.56056 -0.5704,-0.37373 -0.85559,-1.32766 -0.85559,-2.86178 0,-0.98346 0.80641,-2.02589 2.41924,-3.12731 3.22565,-3e-5 4.83847,-3.4617 4.83849,-10.38504 l 0,-60.89408 c -2e-5,-3.61898 -0.36389,-6.5201 -1.09161,-8.70337 -0.72775,-2.18316 -2.46843,-3.47146 -5.22202,-3.86489 -2.91097,-0.47199 -4.36644,-1.2784 -4.36644,-2.41924 0,-1.77011 1.71117,-3.66813 5.13351,-5.69407 3.42233,-2.0258 6.0776,-3.03873 7.9658,-3.0388 2.71425,7e-5 4.5631,1.07201 5.54655,3.21582 0.98341,2.14395 2.02585,5.43844 3.12732,9.88349 7.39537,-8.73281 15.69552,-13.09924 24.90048,-13.09931 9.16553,7e-5 16.89529,3.56009 23.18932,10.68006 5.82183,6.64806 8.73279,15.10556 8.73287,25.37254 -8e-5,11.09313 -2.91104,19.86533 -8.73287,26.31663 -3.18639,3.77638 -7.12995,6.69717 -11.83068,8.76237 -4.70086,2.06521 -9.52951,3.09781 -14.48595,3.09781 -2.98968,0 -6.59887,-0.67857 -10.82758,-2.0357 -4.22879,-1.35714 -6.34317,-3.25516 -6.34314,-5.69407 -3e-5,-0.82608 0.236,-1.60299 0.70808,-2.33073 0.47201,-0.72773 1.12108,-1.0916 1.94719,-1.09161 1.06207,10e-6 2.10451,0.33437 3.12731,1.0031 3.54032,1.77018 7.65106,2.65527 12.33223,2.65526 3.02892,10e-6 6.05789,-0.82607 9.08691,-2.47824 3.02891,-1.65216 5.48749,-3.73703 7.37574,-6.25463 3.69763,-5.58587 5.54648,-12.50922 5.54655,-20.77007 -7e-5,-8.02476 -1.75057,-14.78093 -5.25152,-20.26853 -3.50108,-5.48749 -9.08697,-8.23126 -16.75768,-8.23132 -6.37267,6e-5 -11.6832,2.00626 -15.93159,6.0186 -4.52381,4.13047 -6.7857,9.85403 -6.78567,17.17072 z"
         style="font-size:241.68814087px;font-style:normal;font-variant:normal;font-weight:normal;font-stretch:normal;line-height:125%;letter-spacing:0px;word-spacing:0px;fill:#000000;fill-opacity:1;stroke:none;font-family:JasmineUPC;-inkscape-font-specification:JasmineUPC"
         id="path3021"
         inkscape:connector-curvature="0" />
      <path
         sodipodi:nodetypes="ccccc"
         d="m 434.0319,818.66645 0,-220.53479 c 0,-19.06383 29.69323,-21.30001 29.69323,-21.30001 l 0,221.59935 c 0,11.01652 -29.69323,8.88539 -29.69323,20.23545 z"
         style="font-size:337.84289551px;font-style:normal;font-variant:normal;font-weight:normal;font-stretch:normal;line-height:125%;letter-spacing:0px;word-spacing:0px;fill:#000000;fill-opacity:1;stroke:none;font-family:Helvetica;-inkscape-font-specification:Helvetica"
         id="path3028"
         inkscape:connector-curvature="0" />
      <path
         sodipodi:nodetypes="cccccsccccsccscccccc"
         d="m 517.00797,818.66645 c 0,-10.62814 0,-152.09528 0,-152.09528 l -26.22901,0 c 6.05817,0 5.12533,-23.09473 13.98601,-23.09473 l 12.243,0 0,-18.64075 c -2e-5,-11.76711 1.04474,-20.5101 3.13429,-26.22901 2.85931,-7.69802 7.89066,-13.93909 15.09405,-18.72323 7.20331,-4.78366 17.29349,-7.17562 30.2706,-7.17586 8.358,2.4e-4 17.59588,0.99002 27.71367,2.96932 0,0 -4.76508,25.71903 -9.96826,25.05012 -4.15072,-0.53362 -8.1413,-0.8005 -11.97173,-0.80065 -9.01802,2.2e-4 -15.39656,1.92477 -19.13563,5.77368 -3.73921,3.84933 -5.60878,11.05268 -5.60872,21.61007 l 0,16.16631 34.1472,0 c -6.01552,0 -4.72121,23.09473 -12.42484,23.09473 l -21.72236,0 0,132.38281 c 0,12.56077 -29.52827,11.20524 -29.52827,19.71247 z"
         style="font-size:337.84289551px;font-style:normal;font-variant:normal;font-weight:normal;font-stretch:normal;line-height:125%;letter-spacing:0px;word-spacing:0px;fill:#000000;fill-opacity:1;stroke:none;font-family:Helvetica;-inkscape-font-specification:Helvetica"
         id="path3030"
         inkscape:connector-curvature="0" />
    </g>
  </g>
</svg>
